<svg xmlns="http://www.w3.org/2000/svg">
  <symbol id="youtube" viewBox="0 -3 20 20" version="1.1" xmlns="http://www.w3.org/2000/svg" xmlns:xlink="http://www.w3.org/1999/xlink" fill="#000000"><g id="SVGRepo_bgCarrier" stroke-width="0"></g><g id="SVGRepo_tracerCarrier" stroke-linecap="round" stroke-linejoin="round"></g><g id="SVGRepo_iconCarrier"> <title>youtube [#168]</title> <desc>Created with Sketch.</desc> <defs> </defs> <g id="Page-1" stroke="none" stroke-width="1" fill="none" fill-rule="evenodd"> <g id="Dribbble-Light-Preview" transform="translate(-300.000000, -7442.000000)" fill="#000000"> <g id="icons" transform="translate(56.000000, 160.000000)"> <path d="M251.988432,7291.58588 L251.988432,7285.97425 C253.980638,7286.91168 255.523602,7287.8172 257.348463,7288.79353 C255.843351,7289.62824 253.980638,7290.56468 251.988432,7291.58588 M263.090998,7283.18289 C262.747343,7282.73013 262.161634,7282.37809 261.538073,7282.26141 C259.705243,7281.91336 248.270974,7281.91237 246.439141,7282.26141 C245.939097,7282.35515 245.493839,7282.58153 245.111335,7282.93357 C243.49964,7284.42947 244.004664,7292.45151 244.393145,7293.75096 C244.556505,7294.31342 244.767679,7294.71931 245.033639,7294.98558 C245.376298,7295.33761 245.845463,7295.57995 246.384355,7295.68865 C247.893451,7296.0008 255.668037,7296.17532 261.506198,7295.73552 C262.044094,7295.64178 262.520231,7295.39147 262.895762,7295.02447 C264.385932,7293.53455 264.28433,7285.06174 263.090998,7283.18289" id="youtube-[#168]"> </path> </g> </g> </g> </g></symbol>

  <symbol id="instagram" viewBox="0 0 20 20" version="1.1" xmlns="http://www.w3.org/2000/svg" xmlns:xlink="http://www.w3.org/1999/xlink" fill="#000000"><g id="SVGRepo_bgCarrier" stroke-width="0"></g><g id="SVGRepo_tracerCarrier" stroke-linecap="round" stroke-linejoin="round"></g><g id="SVGRepo_iconCarrier"> <title>instagram [#167]</title> <desc>Created with Sketch.</desc> <defs> </defs> <g id="Page-1" stroke="none" stroke-width="1" fill="none" fill-rule="evenodd"> <g id="Dribbble-Light-Preview" transform="translate(-340.000000, -7439.000000)" fill="#000000"> <g id="icons" transform="translate(56.000000, 160.000000)"> <path d="M289.869652,7279.12273 C288.241769,7279.19618 286.830805,7279.5942 285.691486,7280.72871 C284.548187,7281.86918 284.155147,7283.28558 284.081514,7284.89653 C284.035742,7285.90201 283.768077,7293.49818 284.544207,7295.49028 C285.067597,7296.83422 286.098457,7297.86749 287.454694,7298.39256 C288.087538,7298.63872 288.809936,7298.80547 289.869652,7298.85411 C298.730467,7299.25511 302.015089,7299.03674 303.400182,7295.49028 C303.645956,7294.859 303.815113,7294.1374 303.86188,7293.08031 C304.26686,7284.19677 303.796207,7282.27117 302.251908,7280.72871 C301.027016,7279.50685 299.5862,7278.67508 289.869652,7279.12273 M289.951245,7297.06748 C288.981083,7297.0238 288.454707,7296.86201 288.103459,7296.72603 C287.219865,7296.3826 286.556174,7295.72155 286.214876,7294.84312 C285.623823,7293.32944 285.819846,7286.14023 285.872583,7284.97693 C285.924325,7283.83745 286.155174,7282.79624 286.959165,7281.99226 C287.954203,7280.99968 289.239792,7280.51332 297.993144,7280.90837 C299.135448,7280.95998 300.179243,7281.19026 300.985224,7281.99226 C301.980262,7282.98483 302.473801,7284.28014 302.071806,7292.99991 C302.028024,7293.96767 301.865833,7294.49274 301.729513,7294.84312 C300.829003,7297.15085 298.757333,7297.47145 289.951245,7297.06748 M298.089663,7283.68956 C298.089663,7284.34665 298.623998,7284.88065 299.283709,7284.88065 C299.943419,7284.88065 300.47875,7284.34665 300.47875,7283.68956 C300.47875,7283.03248 299.943419,7282.49847 299.283709,7282.49847 C298.623998,7282.49847 298.089663,7283.03248 298.089663,7283.68956 M288.862673,7288.98792 C288.862673,7291.80286 291.150266,7294.08479 293.972194,7294.08479 C296.794123,7294.08479 299.081716,7291.80286 299.081716,7288.98792 C299.081716,7286.17298 296.794123,7283.89205 293.972194,7283.89205 C291.150266,7283.89205 288.862673,7286.17298 288.862673,7288.98792 M290.655732,7288.98792 C290.655732,7287.16159 292.140329,7285.67967 293.972194,7285.67967 C295.80406,7285.67967 297.288657,7287.16159 297.288657,7288.98792 C297.288657,7290.81525 295.80406,7292.29716 293.972194,7292.29716 C292.140329,7292.29716 290.655732,7290.81525 290.655732,7288.98792" id="instagram-[#167]"> </path> </g> </g> </g> </g></symbol>

  <symbol id="wazzzapp" fill="#000000" viewBox="0 0 16 16" xmlns="http://www.w3.org/2000/svg"><g id="SVGRepo_bgCarrier" stroke-width="0"></g><g id="SVGRepo_tracerCarrier" stroke-linecap="round" stroke-linejoin="round"></g><g id="SVGRepo_iconCarrier"><path d="M11.42 9.49c-.19-.09-1.1-.54-1.27-.61s-.29-.09-.42.1-.48.6-.59.73-.21.14-.4 0a5.13 5.13 0 0 1-1.49-.92 5.25 5.25 0 0 1-1-1.29c-.11-.18 0-.28.08-.38s.18-.21.28-.32a1.39 1.39 0 0 0 .18-.31.38.38 0 0 0 0-.33c0-.09-.42-1-.58-1.37s-.3-.32-.41-.32h-.4a.72.72 0 0 0-.5.23 2.1 2.1 0 0 0-.65 1.55A3.59 3.59 0 0 0 5 8.2 8.32 8.32 0 0 0 8.19 11c.44.19.78.3 1.05.39a2.53 2.53 0 0 0 1.17.07 1.93 1.93 0 0 0 1.26-.88 1.67 1.67 0 0 0 .11-.88c-.05-.07-.17-.12-.36-.21z"></path><path d="M13.29 2.68A7.36 7.36 0 0 0 8 .5a7.44 7.44 0 0 0-6.41 11.15l-1 3.85 3.94-1a7.4 7.4 0 0 0 3.55.9H8a7.44 7.44 0 0 0 5.29-12.72zM8 14.12a6.12 6.12 0 0 1-3.15-.87l-.22-.13-2.34.61.62-2.28-.14-.23a6.18 6.18 0 0 1 9.6-7.65 6.12 6.12 0 0 1 1.81 4.37A6.19 6.19 0 0 1 8 14.12z"></path></g></symbol>

  <symbol id="facebook" viewBox="0 0 24 24" fill="none" xmlns="http://www.w3.org/2000/svg"><g id="SVGRepo_bgCarrier" stroke-width="0"></g><g id="SVGRepo_tracerCarrier" stroke-linecap="round" stroke-linejoin="round"></g><g id="SVGRepo_iconCarrier"> <path fill-rule="evenodd" clip-rule="evenodd" d="M2 6C2 3.79086 3.79086 2 6 2H18C20.2091 2 22 3.79086 22 6V18C22 20.2091 20.2091 22 18 22H6C3.79086 22 2 20.2091 2 18V6ZM6 4C4.89543 4 4 4.89543 4 6V18C4 19.1046 4.89543 20 6 20H12V13H11C10.4477 13 10 12.5523 10 12C10 11.4477 10.4477 11 11 11H12V9.5C12 7.567 13.567 6 15.5 6H16.1C16.6523 6 17.1 6.44772 17.1 7C17.1 7.55228 16.6523 8 16.1 8H15.5C14.6716 8 14 8.67157 14 9.5V11H16.1C16.6523 11 17.1 11.4477 17.1 12C17.1 12.5523 16.6523 13 16.1 13H14V20H18C19.1046 20 20 19.1046 20 18V6C20 4.89543 19.1046 4 18 4H6Z" fill="#000000"></path> </g></symbol>

  <symbol id="reddit" viewBox="0 0 24 24" fill="none" xmlns="http://www.w3.org/2000/svg"><g id="SVGRepo_bgCarrier" stroke-width="0"></g><g id="SVGRepo_tracerCarrier" stroke-linecap="round" stroke-linejoin="round"></g><g id="SVGRepo_iconCarrier"> <path fill-rule="evenodd" clip-rule="evenodd" d="M24 12C24 18.6274 18.6274 24 12 24C5.37258 24 0 18.6274 0 12C0 5.37258 5.37258 0 12 0C18.6274 0 24 5.37258 24 12ZM19.688 11.0584C19.882 11.3352 19.9918 11.6622 20.0041 12C20.0092 12.3306 19.9207 12.656 19.7486 12.9384C19.5766 13.2208 19.3282 13.4488 19.0321 13.596C19.0456 13.7717 19.0456 13.9483 19.0321 14.124C19.0321 16.812 15.9001 18.996 12.0361 18.996C8.1721 18.996 5.0401 16.812 5.0401 14.124C5.02659 13.9483 5.02659 13.7717 5.0401 13.596C4.80929 13.49 4.6043 13.335 4.43933 13.1418C4.27437 12.9487 4.15337 12.722 4.08472 12.4775C4.01608 12.2329 4.00143 11.9764 4.04179 11.7256C4.08215 11.4748 4.17656 11.2358 4.31847 11.0251C4.46038 10.8145 4.6464 10.6372 4.86364 10.5056C5.08088 10.3739 5.32414 10.2911 5.57657 10.2629C5.82899 10.2346 6.08454 10.2616 6.32551 10.3419C6.56649 10.4222 6.78711 10.5539 6.9721 10.728C8.35483 9.79022 9.98156 9.27718 11.6521 9.25199L12.5401 5.08799C12.5501 5.03979 12.5695 4.99404 12.5973 4.9534C12.6251 4.91277 12.6607 4.87805 12.7019 4.85126C12.7432 4.82447 12.7895 4.80614 12.8379 4.79734C12.8863 4.78854 12.936 4.78944 12.9841 4.79999L15.9241 5.38799C16.0677 5.14132 16.2945 4.95389 16.5638 4.85937C16.8331 4.76484 17.1273 4.76939 17.3935 4.87222C17.6598 4.97504 17.8807 5.1694 18.0165 5.4204C18.1524 5.6714 18.1944 5.96261 18.1349 6.24176C18.0754 6.52091 17.9183 6.76971 17.6919 6.94351C17.4655 7.11731 17.1846 7.20472 16.8996 7.19005C16.6145 7.17539 16.344 7.05961 16.1367 6.86349C15.9293 6.66738 15.7986 6.40377 15.7681 6.11999L13.2001 5.57999L12.4201 9.32399C14.0703 9.35939 15.675 9.87205 17.0401 10.8C17.284 10.5659 17.5903 10.4074 17.9222 10.3436C18.2541 10.2797 18.5974 10.3132 18.9107 10.44C19.224 10.5669 19.494 10.7816 19.688 11.0584ZM8.20634 12.5333C8.07448 12.7306 8.0041 12.9627 8.0041 13.2C8.0041 13.3576 8.03514 13.5136 8.09545 13.6592C8.15575 13.8048 8.24414 13.9371 8.35557 14.0485C8.467 14.16 8.59929 14.2483 8.74488 14.3086C8.89047 14.369 9.04652 14.4 9.2041 14.4C9.44144 14.4 9.67345 14.3296 9.87079 14.1978C10.0681 14.0659 10.2219 13.8785 10.3128 13.6592C10.4036 13.4399 10.4273 13.1987 10.381 12.9659C10.3347 12.7331 10.2205 12.5193 10.0526 12.3515C9.88481 12.1836 9.67099 12.0694 9.43821 12.0231C9.20543 11.9767 8.96415 12.0005 8.74488 12.0913C8.52561 12.1822 8.3382 12.336 8.20634 12.5333ZM12.0121 17.424C13.0772 17.4681 14.1247 17.1896 14.9761 16.548C15.0076 16.5173 15.0328 16.4806 15.0501 16.4402C15.0675 16.3997 15.0767 16.3563 15.0773 16.3122C15.0778 16.2682 15.0697 16.2245 15.0534 16.1837C15.0371 16.1428 15.0128 16.1055 14.9821 16.074C14.9514 16.0425 14.9147 16.0173 14.8743 16C14.8338 15.9826 14.7904 15.9734 14.7463 15.9728C14.6575 15.9717 14.5718 16.0059 14.5081 16.068C13.7798 16.5904 12.8951 16.8487 12.0001 16.8C11.1062 16.8399 10.2256 16.5732 9.5041 16.044C9.44193 15.993 9.36299 15.9669 9.28266 15.9708C9.20232 15.9748 9.12632 16.0085 9.06945 16.0653C9.01257 16.1222 8.97889 16.1982 8.97494 16.2785C8.971 16.3589 8.99707 16.4378 9.0481 16.5C9.89947 17.1416 10.947 17.4681 12.0121 17.424ZM14.0934 14.2458C14.2908 14.3776 14.5108 14.496 14.7481 14.496C14.9108 14.4978 15.0722 14.4664 15.2224 14.4038C15.3726 14.3413 15.5086 14.2488 15.6219 14.1321C15.7353 14.0153 15.8237 13.8768 15.8819 13.7248C15.94 13.5728 15.9666 13.4106 15.9601 13.248C15.9601 13.0107 15.8897 12.7786 15.7579 12.5813C15.626 12.384 15.4386 12.2302 15.2193 12.1393C15 12.0485 14.7588 12.0247 14.526 12.0711C14.2932 12.1174 14.0794 12.2316 13.9116 12.3995C13.7438 12.5673 13.6295 12.7811 13.5832 13.0139C13.5369 13.2467 13.5606 13.4879 13.6514 13.7072C13.7423 13.9265 13.8961 14.1139 14.0934 14.2458Z" fill="#000000"></path> </g></symbol>

  <symbol id="share" viewBox="0 0 16 16" fill="none" xmlns="http://www.w3.org/2000/svg"><g id="SVGRepo_bgCarrier" stroke-width="0"></g><g id="SVGRepo_tracerCarrier" stroke-linecap="round" stroke-linejoin="round"></g><g id="SVGRepo_iconCarrier"> <path d="M11 6C12.6569 6 14 4.65685 14 3C14 1.34315 12.6569 0 11 0C9.34315 0 8 1.34315 8 3C8 3.22371 8.02449 3.44169 8.07092 3.65143L4.86861 5.65287C4.35599 5.24423 3.70652 5 3 5C1.34315 5 0 6.34315 0 8C0 9.65685 1.34315 11 3 11C3.70652 11 4.35599 10.7558 4.86861 10.3471L8.07092 12.3486C8.02449 12.5583 8 12.7763 8 13C8 14.6569 9.34315 16 11 16C12.6569 16 14 14.6569 14 13C14 11.3431 12.6569 10 11 10C10.2935 10 9.644 10.2442 9.13139 10.6529L5.92908 8.65143C5.97551 8.44169 6 8.22371 6 8C6 7.77629 5.97551 7.55831 5.92908 7.34857L9.13139 5.34713C9.644 5.75577 10.2935 6 11 6Z" fill="#000000"></path> </g></symbol>

  <symbol id="discord" viewBox="0 0 24 24" fill="none" xmlns="http://www.w3.org/2000/svg"><g id="SVGRepo_bgCarrier" stroke-width="0"></g><g id="SVGRepo_tracerCarrier" stroke-linecap="round" stroke-linejoin="round"></g><g id="SVGRepo_iconCarrier"> <path d="M18.59 5.88997C17.36 5.31997 16.05 4.89997 14.67 4.65997C14.5 4.95997 14.3 5.36997 14.17 5.69997C12.71 5.47997 11.26 5.47997 9.83001 5.69997C9.69001 5.36997 9.49001 4.95997 9.32001 4.65997C7.94001 4.89997 6.63001 5.31997 5.40001 5.88997C2.92001 9.62997 2.25001 13.28 2.58001 16.87C4.23001 18.1 5.82001 18.84 7.39001 19.33C7.78001 18.8 8.12001 18.23 8.42001 17.64C7.85001 17.43 7.31001 17.16 6.80001 16.85C6.94001 16.75 7.07001 16.64 7.20001 16.54C10.33 18 13.72 18 16.81 16.54C16.94 16.65 17.07 16.75 17.21 16.85C16.7 17.16 16.15 17.42 15.59 17.64C15.89 18.23 16.23 18.8 16.62 19.33C18.19 18.84 19.79 18.1 21.43 16.87C21.82 12.7 20.76 9.08997 18.61 5.88997H18.59ZM8.84001 14.67C7.90001 14.67 7.13001 13.8 7.13001 12.73C7.13001 11.66 7.88001 10.79 8.84001 10.79C9.80001 10.79 10.56 11.66 10.55 12.73C10.55 13.79 9.80001 14.67 8.84001 14.67ZM15.15 14.67C14.21 14.67 13.44 13.8 13.44 12.73C13.44 11.66 14.19 10.79 15.15 10.79C16.11 10.79 16.87 11.66 16.86 12.73C16.86 13.79 16.11 14.67 15.15 14.67Z" fill="#000000"></path> </g></symbol>

  <symbol id="vk" fill="#000000" viewBox="0 0 32 32" version="1.1" xmlns="http://www.w3.org/2000/svg"><g id="SVGRepo_bgCarrier" stroke-width="0"></g><g id="SVGRepo_tracerCarrier" stroke-linecap="round" stroke-linejoin="round"></g><g id="SVGRepo_iconCarrier"> <title>vk</title> <path d="M25.217 22.402h-2.179c-0.825 0-1.080-0.656-2.562-2.158-1.291-1.25-1.862-1.418-2.179-1.418-0.445 0-0.572 0.127-0.572 0.741v1.968c0 0.53-0.169 0.847-1.566 0.847-2.818-0.189-5.24-1.726-6.646-3.966l-0.021-0.035c-1.632-2.027-2.835-4.47-3.43-7.142l-0.022-0.117c0-0.317 0.127-0.614 0.741-0.614h2.179c0.55 0 0.762 0.254 0.975 0.846 1.078 3.112 2.878 5.842 3.619 5.842 0.275 0 0.402-0.127 0.402-0.825v-3.219c-0.085-1.482-0.868-1.608-0.868-2.137 0.009-0.283 0.241-0.509 0.525-0.509 0.009 0 0.017 0 0.026 0.001l-0.001-0h3.429c0.466 0 0.635 0.254 0.635 0.804v4.34c0 0.465 0.212 0.635 0.339 0.635 0.275 0 0.509-0.17 1.016-0.677 1.054-1.287 1.955-2.759 2.642-4.346l0.046-0.12c0.145-0.363 0.493-0.615 0.9-0.615 0.019 0 0.037 0.001 0.056 0.002l-0.003-0h2.179c0.656 0 0.805 0.337 0.656 0.804-0.874 1.925-1.856 3.579-2.994 5.111l0.052-0.074c-0.232 0.381-0.317 0.55 0 0.975 0.232 0.317 0.995 0.973 1.503 1.566 0.735 0.727 1.351 1.573 1.816 2.507l0.025 0.055c0.212 0.612-0.106 0.93-0.72 0.93zM20.604 1.004h-9.207c-8.403 0-10.392 1.989-10.392 10.392v9.207c0 8.403 1.989 10.392 10.392 10.392h9.207c8.403 0 10.392-1.989 10.392-10.392v-9.207c0-8.403-2.011-10.392-10.392-10.392z"></path> </g></symbol>

  <symbol id="linkdln" fill="#000000" viewBox="0 0 32 32" xmlns="http://www.w3.org/2000/svg"><g id="SVGRepo_bgCarrier" stroke-width="0"></g><g id="SVGRepo_tracerCarrier" stroke-linecap="round" stroke-linejoin="round"></g><g id="SVGRepo_iconCarrier"> <title></title> <g id="Linkedln"> <path d="M26.49,30H5.5A3.35,3.35,0,0,1,3,29a3.35,3.35,0,0,1-1-2.48V5.5A3.35,3.35,0,0,1,3,3,3.35,3.35,0,0,1,5.5,2h21A3.35,3.35,0,0,1,29,3,3.35,3.35,0,0,1,30,5.5v21A3.52,3.52,0,0,1,26.49,30ZM9.11,11.39a2.22,2.22,0,0,0,1.6-.58,1.83,1.83,0,0,0,.6-1.38A2.09,2.09,0,0,0,10.68,8a2.14,2.14,0,0,0-1.51-.55A2.3,2.3,0,0,0,7.57,8,1.87,1.87,0,0,0,7,9.43a1.88,1.88,0,0,0,.57,1.38A2.1,2.1,0,0,0,9.11,11.39ZM11,13H7.19V24.54H11Zm13.85,4.94a5.49,5.49,0,0,0-1.24-4,4.22,4.22,0,0,0-3.15-1.27,3.44,3.44,0,0,0-2.34.66A6,6,0,0,0,17,14.64V13H13.19V24.54H17V17.59a.83.83,0,0,1,.1-.43,2.73,2.73,0,0,1,.7-1,1.81,1.81,0,0,1,1.28-.44,1.59,1.59,0,0,1,1.49.75,3.68,3.68,0,0,1,.44,1.9v6.15h3.85ZM17,14.7a.05.05,0,0,1,.06-.06v.06Z"></path> </g> </g></symbol>

  
</svg>

